<?xml version="1.0" encoding="utf-8"?>
<!-- Generator: Adobe Illustrator 24.1.3, SVG Export Plug-In . SVG Version: 6.00 Build 0)  -->
<svg version="1.1" id="圖層_1" xmlns="http://www.w3.org/2000/svg" xmlns:xlink="http://www.w3.org/1999/xlink" x="0px" y="0px"
	 viewBox="0 0 510.2 708.7" style="enable-background:new 0 0 510.2 708.7;" xml:space="preserve">
<style type="text/css">
	.st0{fill:#FCEE21;}
	.st1{fill:none;}
</style>
<circle id="point_x5F_4" class="st0" cx="328.8" cy="108.8" r="4"/>
<circle id="point_x5F_3" class="st0" cx="328.8" cy="85.8" r="4"/>
<circle id="point_x5F_1" class="st0" cx="332.2" cy="61.6" r="4"/>
<circle id="point_x5F_2" class="st0" cx="345.5" cy="76.3" r="4"/>
<circle id="point_x5F_5" class="st0" cx="394.8" cy="109" r="4"/>
<circle id="point_x5F_6" class="st0" cx="364.3" cy="90" r="4"/>
<circle id="point_x5F_7" class="st0" cx="327" cy="144.4" r="4"/>
<circle id="point_x5F_8" class="st0" cx="151.1" cy="250.8" r="3.6"/>
<circle id="point_x5F_9" class="st0" cx="151.1" cy="250.8" r="4"/>
<circle id="point_x5F_10" class="st0" cx="313.3" cy="299.2" r="4"/>
<circle id="point_x5F_11" class="st0" cx="107.8" cy="550.4" r="4"/>
<circle id="point_x5F_12" class="st0" cx="187.8" cy="667.4" r="4"/>
<circle id="point_x5F_13" class="st0" cx="106.5" cy="523.5" r="4"/>
<circle id="point_x5F_14" class="st0" cx="157.3" cy="430.4" r="3.6"/>
<circle id="point_x5F_15" class="st0" cx="382.3" cy="188.5" r="4"/>
<path class="st0" d="M331.5,57.7c2.7,0,4.7,1.3,4.7,4.1c0,2.9-2.7,3.8-4.2,3.8s-3.8-1.2-3.8-4"/>
<rect class="st1" width="510.2" height="708.7"/>
</svg>
