<svg id="befbccd3-5b58-4e75-a68b-8ddcb3c5f966" data-name="圖層1" xmlns="http://www.w3.org/2000/svg" viewBox="0 0 1000 850"><path id="bb6358d8-84d8-45bc-a838-ab32ff095450" data-name="heilongjiang" class="b6eb5619-9497-4728-ade6-c6584771b129" d="M767.4,20.2l19.7-6.9,7.2-2.4L811,16.6l5.4-2.4,8.3,2.6,6.8,5.6,1,2.5,4.9,3.5,3.7,6.2,1,4.1,10.1,12.9.5,4.2,9.2,9.1,1.1,7.4,4,2.2.3,5.6,6.1,6.4,6.7-.2,5.8-3.5,8.5,3.9L898,85l14.7,7.9,5.7-1.3,1.4,5.9,5.5,6.3-1.1,4.5,5.5,4.7,1.6,2.4,7-2.6,5-.4,10.2-4.5,1.4-4.4,6.2-6.9,4.2-.5L968,92l7.8-6.9,6,.9.1,7.3,4.6,5-1.5,6.8-3.7,2.7,1.6,16.7-.6,3.3,1.6,6.1-1.6,3.4-1,13.6-2.9,3.1,1.1,9.1-1.8,1.1-14.6.4L960,163l-4.2,9.6-5.6,3.7.1,1.4,9.3,14.8.7,10.6,1.3,2-4.5,2.1-4.9-2.6L949,204l-3.3-5.9-3.4,3.1-2.9-2.4-2.1.5-.3,3.8-4.6,1.3-2.9,2.1.7,3.2-1.3,2.4-3.9.9-3.9-4.7-.3-1.3-3.7-1-3.8-4.2-.7-6.1-1.8-2.1-3.8-.1-.6,2.8,2.1,7.1-.6,2-2.6,1.2-6.6-6.4-.7-3.5-2.9-1.4-1.7,1.2-2.6.6-2.6-3,1-2.9-3.3-4.6H883l-2.5-1.7-2.2.3L875,189l-6.2-.5-2.6-1.5-.1-2.4-1.3-1.1-2.9.5-1.8,3-3.8.5-2.4-1.8-1.9,1.7-3.8,1.8-2.8-.8-6.2-4.9-2.3-4.7.4-2-1.8-2.7-2.2-1.4-5.7,2-3.3.3-2.1,1-2.5-.4-.7-1.4.7-2.8-.9-2.1.8-1.5,4.5-.2,2-1.6.8-2.4-.7-1.5-.9,2-2,.5-4-.7-1.7-.9-4-4.1-2.3-.5-4.2-4.4.6-4.1,8.5-8.3.8-3.7,3.2-3,6.7-11.7,1.6-1,1.1.3,1.8,4,2.2,2.1.6-1-.1-2.8-.8-1.8-.4-8.1,1.5-8.8,1.5-.8,2.6-.4,1.1-6-3.1-4.8.5-2.7-1.1-2.9-.6-5.9,2.1-1.5.2-4.4L841,72V69.4l-1.5-1.5.1-2.2,2-2.3.5-2.4-1.3-3.3-2.6-.4-7.9-8.1-5.2-.1L823.5,54l-1.6,2.9h-3.8l-1.8,2-3.3-.4-1.6,1.3-2,.2-1.6,3.2-2-.2L804,61.7l-1.9,1.1-3.1-.4-3.8-2.6-3.8-6.3V50l-2-3.9-.1-1.6.4-1.4-1-1-2.8-.5-2.5-3-1.7-.8-1.7.8-.2,3.5L778,43.7l-1.7.1-2-2.5-3.1-.6-4.6-2.1.3-1.8,4.7-6.9.9-3-1.4-2.3Z"/><path id="a6f56ddc-c32c-4f3c-835e-08e25d50e093" data-name="jilin" class="b6eb5619-9497-4728-ade6-c6584771b129" d="M822,176l2.3-1.3,3.3-.1,5.5-2.1,1.9,1.1,2.2,2.9-.6,2.1,2.5,4.9,6.1,4.8,2.6.9,4-1.9,1.8-1.7,3,1.8,3.5-.5,1.8-3.1,2.8-.5,1.4,1v2.3l2.6,1.8,6.1.4,3.4-3.6,2-.3,2.8,1.7,3.1-.1,3.3,4.3-1,2.9,2.3,3.1,3.1-.5,1.4-1.2,2.8,1.3.5,3.3,6.6,7,2.7-1.3.9-2-2.2-7.2.4-2.6,3.8.1,1.8,1.8.9,6.2,3.7,4.2,3.8.8.4,1.6,3.8,4.7,3.9-.8,1.4-2.3-.6-3.2,2.6-2.3,4.7-1.1.3-3.8,2.2-.4,2.6,2.2,3.5-2.9,3.4,5.7,3.1.6,4.8,2.5,5.8-2.4v8.8l-2.9,6.9-5,3.1-.4,2.2,1.5,1.7-2.9.3-6.4-6.3-3.2,1.4-.4,12.6-6.3,3-.4,5.3-6.5,4.9-8.2,1.4-1.2,3.2,5.5,6.4-.6,4.1-15.2,1.4-5.8-4.5-6,3.9-.4,8.1-7.3,12.2-2.1.6-1.5-2.2.9-2.6-.3-4.2-4.7-4.4-2.5-3.3-1.7-.4-2-4.2,1.8-4.8-.3-2.3-2.5-.3-5.8-7.7-2.2-1.2-.4-2.4-2.3-1.4-.7-4.2-1.3-1.1-1.9,1.6-1,3.4-2.1,1.3L857,244l-.1-2.8-3-3.2-4.5-1.3-3.9-2.1-.8.6-.1,2.3-5.1-1.5-1-.9-.1-1.7,1.6-1.3v-1l-2.5-5.6-2.2-1.7-.2-3-1.2-.6-3.1-4.2-.6-2-1.1.3-8.5,7.5-2,.9-2.9-1.6,1.3-2-1.2-2.4-3.6-3.3-1.3-6.3-.8-1.9.6-2,1.9-1.7.3-2.9-2-2.4-2.7-1.1-1.2-2.8-1.4-1-2.3.5-1.1-1.1.9-2.4V185l3.2-.6,4.5,2.9,1.1-1.7,1.1-.5,2,1,1.8,1.8,1.3.1.8-1.7-.1-3.3-.8-1.7.4-2,2.4-.5,1.1-1.1Z"/><path id="aef3c6c1-57a7-412c-bc98-c74494d34791" data-name="neimonggol" class="b6eb5619-9497-4728-ade6-c6584771b129" d="M418.2,289.4l2.6-.6,27.7,4.1,16.3-2.4,26.4,4.4L497,302l14.4,3,12.7,4.4,12.3-.7,1.2,4,5.8,1.6,13.2-9.7,16.4-7.7,7-1.6,2-2.3h3l5.4,1.1,4.6-1.6,21-1.8,8.3-4.3,7-3.6,10.2-14.4,7.7-3.8,2.4-2.9,3.9-3.1-.3-1.8-9.9-11.3,5.8-15.9,10-.6,2.9,3.4,15,.6,11.6-10,2.9-6.4,15.2-1.5,9-10.1-.7-2.8,2.8-7.2,4.7-5.2,7.4-.7,2.3-4.7,3.5.8,8.6-6.2,10.4-1.1,6.4,1.1,5.2-1.6,2.3-3.7.1-1.5-4.8-7.2-9.4-6.2-2.4-4.3-4-.3-6.2-3.8L733.1,152l-4.4,8-5.8-3.3L710,159.1l-2.4,3.6-5.4-3.4-2.7-6.3,4.1-3.3.4-8.4,2.3-3.3-.7-3.3,6.5-22.3,4.5,2.3,12.6,2.1,3.2-1.6,7.3-9.4,7.2-2.1,2.7-4.1-3.2-6.3.8-3.9,1.9-3.8L754.4,64l6.5-7.8L761,49l-2.4-2.9.2-2.8-1.6-1.9-3.7-.4-4.1.8.1-4.9,3.1-2.8,3.9-7.7,10.6-6.3,5.5,6.4-1.1,3.4-4.6,6.6-.3,1.7,4.9,2.3,2.7.4,2.1,2.6,1.6.2,1.7-1.8.3-3.2,1.5-1.1,1.9.9,2.9,3.2,2.5.3,1,.8-.4,1.8.1,1.9,1.8,3.4v3.9l4,5.7,3.7,3,3.3.3,1.8-1.2,2,1.5,1.6-.2,1.3-2.7,2.4-.4,1.6-1.4,3,.7,1.8-1.9,3.9-.4,2.3-3.8,1-3.5,2.6-.5,3.4.9,7.3,7.7,2.4.5,1.3,3.1-.6,2.5-2,2.3v2.3l1.3,1.5.2,2.3-3.6,4.2L837,81l-2.1,1.3.7,6.3,1,2.7-.4,2.6,3,4.6-.6,5.7-.9.8-2.4.1-1.4,1-1.1,9.8.5,7.1.8,2.4-.2,2.3-.6,1-2-2.2-1.8-4.2-1.4-.3-1.1.8-7.4,12.6-2.6,2.4-1,4.1-8.3,7.6-.7,4.3,4.1,4.6,2.3.4,3.9,4L820,164l4.3.3,1.1-.6.8-1.8.6,1.6-1,2.8-2,1.2-4.3.4-1,1.4,1.1,1.9-.8,2.7.7,1.9,2.3.5.1,2.2-1.1,1.3-2.4.4-.3,2,.8,1.7v3.4l-.7,1.5-1.3-.1-1.8-2-2.1-1.2-1.2.6-.7,1.6-4.4-2.6-3.1.2-.3,3.6-.8,2.2,1,1.3,2.6-.5,1.1.9,1.5,3,2.7.8,1.3,2.2v3.5l-1.9,1.3-.5,1.8,2.2,8.8,3.7,3.1.9,2.2-1.3,1.8,2.8,2.1,1.9-.9,8.5-8h1.2l.8,1.9,3.5,4.6.5.6.3,2.5,2.2,1.8,2.4,5.7-.2.9-1.2,1v2.4l5.9,2-.7,5.8-5.3,3.7-1.4,4.4-5.5,2.7-2.4-1.8-3.4-.1-.4,1.3,1.1,2.1-1.6,1.5-2.1-.9-2.7.4-1.2,1.2.3,3.1-3,1.9-3.1-1-1.8,1.4-4.2,5.9-3.5.5-3.9,3.4-6.2,10.2-.8-.4L791,280l-3.5-4.1-.3-2-2.7.1-3.2-2.4-3.5,3,.4,1.8,1.6,2.2.6,9.9,2.4,3.4-.3,3.1-2.5,2.3-1.1-.5-2.3.3-1.8,1-8.5-.2-1.3-1.4-.4-3-4.2-4.7,1-1.8-.3-3.3-4.3-3.3-1.6-3.9-3.9-4.4-2.3.2-3.7,3.3h-2.9l-4.1,3-.5,1.6,1.3,2.9-.2,4.6-1.5,1.3h-4.1l-2.1-.9-2.3,1.8-.6,1.5-2.6,1.2-2.5-.8-1.9.6-6,5.5-1.6,2.6-1.8.4-3.3-.2-1.2-1.1-.2-7.5-2.2-3-4.6.1-1.8,3.9-2.5,3.6-.1,4.5-1.2,1.6-1.9,2.1-.6,3.5,1.6,2.4-1.9,2.9,2.5,2.5,3.6,5.3-2.9,4.7-3.9,2-3.6,2.8-2.4.2-3-1.6-2.1.7-1.7,1.7-1.3,2.3-2.1,1.4-5.1-1.9-2.1.9-2.9,5.9-2.6,7.4-2.7,1.8-3.9-.4-1.1,1.4-.9,2.8-2.2,1.8-1.8-.2-2-2.8-3.9,3.9-1.5,2.2-.9.5-2.5-1.6-4.3,1.1-.3-1.5-.9-.3-1.6,3.5-3.9,4.2-.6,5.5,1.3,1.6-.3,2.1-1.2,1.1-4.1,1-1.4,2.9-2.2,2-2.8,4.7-2.8,2.3-1.8,4-1.8,4.8-1.6,1.4-4.4.2-2.9-3.8-1.4.1-1.5,1.6-4.3.1-4.7,1.1-.6-4.3-2-2.9-3.6-1.7-3.9.2-4.7-1.6-2.2-1.8.1-1.2,6.8-15.5-3.5-2.5-.2-3.9h-3.1l-2.5,1.8-2.3.2-1.1,2.2-3.5,2.4-.1,3.4-3.3,5.1.5,10.5-8.7,7.6-3.3,5-2.8,2.1-4.3.8-2.9.1-2.4,1.8-3.5.2-5.3-1.9-.6-2.2-3.2-1.1-2.5-1.6-.3-4.9,1.2-1.5.7-2.7-.2-3.5,5.3-1.6,1.9-2,.2-4.7-.7-2.6,2.5-3.2-.6-4.5-5.7-4.8-2-.9-6.8.3-1.6,1.2-7.4,7.4-8.4,3.3-11.8.3-5.3-1.5-1.5-1.3-3.3-.5-2.6-1.9-.6-4.5.9-2.4-.8-1.6-7.5-.5-2.2-3.4-5-2.2-3.8-3.6.2-1.3,2.3-2,2.3-3.5,6.3-4.3.7-2.8-1-4.5-5.1-3.3H444.2l-2.7,1.1-5.5,5.7-3.6.4-2.5-1.8-2.6-3.8-4.5-4.3L418,313l.1-4.1,2.6-6.6-2.6-4.3Z"/><path id="ad072765-d46c-47a1-8468-defc5f85bcfd" data-name="ningxia" class="b6eb5619-9497-4728-ade6-c6584771b129" d="M537.6,403.2l1.1-1h3.7l3.5-.8,3.2-2.1,3.2-5.2,8.4-7.1-.4-10.6,3.4-5.2-.1-3.1,2.5-2.1,1-.4,1.1-2.2,2.1-.4,2.6-1.9,3.1.1.4,3.7,3,2.6-.4,2.2-6,13.1-.1,1.8,2.4,1.8,4.4,1.5,3.9-.3,3.8,1.5,1.9,3.1.6,4-.9.7-2.2,2.9-.9,5.1,1.3,3-.5,1.6-2.8.3-3,.8-2.5-2.1h-2l-1.6,6.3,1.5,2.4-.6,1.5-2.3.8-.5,5.4,1.4,3.8,7.3,3.3.6,3.1-1,2.3-.6,3.2-2.2,1-2.5-.7-1.6.8-.4,7L573,450l-2.5.3-3-2.1-3.9-.2-2.5-5.6-5.9-1.5-2.4-3.2.2-2,1.9-2.9.1-4.1-2.3-2.8-1.4-4.2-.5-5.4-1.5-1.8-4-3.1-1.7-3-2.8-.1.3-2.2-1.5-2Z"/><path id="a327603c-8ba8-4c6c-926e-70a8d1384c52" data-name="gansu" class="b6eb5619-9497-4728-ade6-c6584771b129" d="M402.6,285.7l15.3,4,.2,8.6,2.3,4-.5,2.3-2.1,4.7.1,4.2,2.4,5.3,3.5,6.6,4.4,4.3,2.3,3.9,2.7,1.5,3.7-.3,5.2-5.4,2.7-1.5,17.1.1,4.8,3.1,1,4.9-.5,2.5-6.3,4.3-2.9,4.1-1.8,1.3-.2,1.3,3.8,3.9,5.1,1.9,1.8,3.5,7.6.5,1,1.4-.9,2.3.2,4.7,2.9,2.2,3.3.6,1.9,1.5,4.8,1.2,12.1-.3,8.1-3.4,9-8.6,7-.2,3.5,2.1,4,3.6.6,4.3-2.3,3.2.7,3.2-.3,4-1.6,2.1-5.1,1-.5,5.5-1.5,3.4.3,4.7,5.8,2.5.6,2.1,5.6,2,3.2-.4.7-.6,2.1.9,1.8,1.6v2.3l2.5.3,1.9,3.2,5.4,4.4.4,5.8,1.4,4.3,2.5,2.5L555,433l-2,3v2l1.9,3,6.3,1.6.7,2.5,1.4,3,4.1.2,3.2,2.3,2.3-.6.7-1.2.4-6.6,1.8-1.1,2.5.7,2-.8.7-3.5,1.1-2.1-.4-2.9-7.6-3.7-1.4-3.9.4-5.1,2.1-.8,1-1.3-1.7-2.8,1.5-6,2.2-.1,2.6,2,5.8-.9.6,2.9,1.1,1.8,2.3.6.7.6,6.7,1.9,3.7,3.6,2.4-.8,8.8,5.2.3,7.6-3.2,3,.3,4.7,2,2.8-.6,4.8-2,1.3-5.7-.3-2.8,1.5-3.3-1.3-1.1.2-.1,3.6,1.7,2.6-11.2,2.4-3.5-3.1-3-.3-5.2.9-.9,2.4,1,2.1-.5,2.9-2.8,2.6.2,1.4,3.8,1.4,2.1,1.7.2,1.8-1.4,1.6-3,6.4,1.2,1.8-.3,4.3.7,1.1-.5,1-2.2-.3-5.8.5-3.1,1.6-1.4,2.2,2.9,1.4,1.1,2.8-.8,3.8-4,3.8-4.1.1-1.1,1-.1,4.1-5.4,2.7-2.8-1.6-1.5.3-1.5-1-4.2-.2-3.6-3.8.1-4-1.9-3.4-1.1-3.9-1.3.1-3.9,2.8h-2l-6.8-6.1-1.5-4.4-4-1.2-1.5-3.2.6-5.4L513,477l-1.1-1-2.2.3-4.4,2.2-4.6,1.2-3,2.5.3,3.5.6,1.8-7.5-.2-2.1-4.9-4.5-2.2-7.5-.3-2.2-1.7.3-6.5,2.8-.6,5.1,4.4,5.5,1.3,2.2-.6,2.2-3.9-.8-3.5-.1-7.3,3.5-1.3,4.3-2.9.8-2.2-1.9-3,1-2.5,2.1-.9,1.8-3.8,2.9,1.6,4.1-6.9.4-5,1-2.8-2.4-2.5-.9-3.9-3-1.4-.3-5.1-2.7-2.5-.6-4.9-1.6-2.5-.9-3.8-4.1-3.2-.6-3.1h-1.2l-3.5,2.3-5.5-2.3-6-4-.9-2.4-4.9-4.5-3.1-1.5-3.1-2.9-3.1-1.8-1.4,3.7-2.8-.6-8.8-10.1-1.9-.3-3.8-4.4-6-2-2.7,2.3-3-2.4-4.9,4.8-4-2.9-1.9-2.5-12.2-3.7-2.3,1.9,1.5,4-.1,4.4-3.8,5.1-.8,5.5-3.6.6-3.3,1.6-4.9-3-5.9.4-10.2-3.6-10.7,1.7-4.1-8.4-6.8.4-1.6-4-9.3.7-2.6-5.6-8.4-3.9,4.7-3.4,1.5-4.7.4-13.2,2.1-9.4,7.4.5,4.3-3.4,1.2-3.3,6.4-6.6,7.2-5,3.6-4.4,7.7-3.5,3.8-1.3,3.6-2.5,8.5-1,5.4-4.5-.9-4.3Z"/><path id="bfe1a6bf-d3fa-4ff5-9bf4-9b1b6ed57722" data-name="qinghai" class="b6eb5619-9497-4728-ade6-c6584771b129" d="M278.3,416.3l1.2.1,7.6,3.6h3.6l4.4-2.3,5.1-1.1.8-1.9-.9-1-4.7-.2-1.1-6.3,3.1-2.8,3.3-.9,2.4-1.8-.2-4,2.5-2.3-.3-1.3-14-10.7-.2-12.6,8.6-5.5,11.9-.2,12.2-1.7,6.5-3.4,11.5,5.5,2.6,5.5,9.4-.6,1.7,3.9,6.7-.4,4.1,8.4,10.8-1.7,10.3,3.7,6.1-.4,4.8,3.1,3.2-1.5,3.9-.6.6-5.8,3.8-5.1.1-4.4-1.3-4,2.2-1.9,12.2,3.6,1.9,2.5,4.1,3.3,4.9-5.1,2.5,2.5L439,368l6.3,2.3,4,4.6,1.9.1,8.5,10.1,2.9.3,1.4-3.5,3.1,1.6,3.5,3.2,3,1.6,4.9,4.3.7,2.4,5.5,3.9,1.2-.1,4.8,2.5,3.5-2.3,1.3.2.3,2.6,4,3.4,1.3,3.9,1.7,2.6.5,4.9,2.6,2.6.4,5.1,2.7,1.4,1,3.7,2.3,2.7-1,3.1-.4,5.1-4.2,6.5-2.8-1.6-1.5,3.7-2.3.9-1.1,2.4,1.6,3.3-.6,2.2-4,2.7-3.8,1.2v7.2l.8,3.6-1.6,4-2.9.8-5.4-1.6L478,471l-2.8.1-.6,6.6,2.1,1.9,7.2.3,4.8,2.5,2.4,4.7,3.8.4h3.8l.8,2.2,1.8,1,.4,2.3-1.6,3.4-.4,3.4-2.2.4-2.3-2.1-2.5.1-3.6,3.5-1.5-.1-1.3-2.5-1.8-2.2h-2.2l-5.7,3.2-2,3.7.4,3.4-1.7,3-2.4-.1-2.4.6-3.8-.6-1.1-1.5-8.3-9.2-1.3-3.2-4-.1-4.3,3.5-2-1.5-2.5-.4-4.7-2.9-2.5-1-3.5,1L428,494l-4.2.8-3.3-1.1-5.3,1.5-4.4,3-.3,2.2,1.5,2.2-1.3,2.4-6.8,2-.4,2,.9,1.1.1,3-1.9,1.8-.6,3.2-8.3,11.2-1.4.8-4.7-2.8-2.2.1-1.9,1.6-2.6-.3-4-3-4.4-.9-1.6-6.9-2.5-.7-5.6-4-1.9-3.7-3.5-1.8-7.8-.6L348,506l-13.7-.4-4.6-2.9-5.3.2-1.4-2.4-2.3-.1-2.7,1.5-4.9-1.9-4.3-4.5-5.1-2.8-3.8-.3-3.4-1.8-3.9-.8-2.7-1.7-9-.8-2-5.9-1.8-3.7-3-4-.8-4.8-3.7-4.6-1.4-2.9-.6-2.5.9-3-1.5-1.4-.3-2.5.8-1.9,5.2-.3,1.3-3.5-1.7-2.3,2.4-7.9,2.7-4.5.4-5.1-1.1-1.7-4.3-.8.2-1.6,5-2.4Z"/><path id="bb61ad14-dd48-4565-ba7c-0f7023a3415a" data-name="xinjiang" class="b6eb5619-9497-4728-ade6-c6584771b129" d="M283.7,128l-.6,3.4-1.8,3.3,3.3,4.7-.1,3.1,7.1,4.8,4.3,10,5.1.8,2.6-1.7,5.7,5.9,3.4-.4,4.6,7.8,2,8.7,5.8,11.1-.8,5.1-2.6,3.8,1.5,5.8-6.8,9.8-.4,6.5,2.1,2.3,19.7,7.2,13.4.6,8,2.4,6.8,6.6,9.2,5.6,2.5,2.9,4.6,2,5.4.9-.9,3.8,3.6,2.4,5.4,18,6,7.3.9,3.1-2.4,6.2,1,4-5.6,4.7-8.6,1-3.5,2.4-4.9,1.6-6.7,3.3-3.8,4.5-6.9,4.8-6.5,6.6-1.5,3.5-4.5,3.3-7.3-.4-2,9.5-.4,12.6-1.4,5.1-4.6,3.4-3.3-1.3-6.1,3-12.5,2-12,.3-8.4,5.3.1,12.8,13.6,10.5.8,1.3-2.6,2.4.2,3.8-2.4,1.9-3.2,1.1-3.5,2.5,1.4,6.3,4.6.5.8.9-.6,1.8-5,1.2-4.1,2-3.7.3-7.2-3.8-5.8-.4-6.1.5-6.7-4-2.3-.4-6.8-4.2-6.6-1.5-8-.6-5.5,3.1-10.1-.1L215,410l-12.4,7.2-1.5.2-6.9-2.2-18.3,4.9-2.3-1.6-6.1-.5-6.9-6.1-3.9-.6-2.5-1.7-5.7.2-2.5-2.2-2.4.1-4.5,2-4.6,6.9-5.5.8-3-4.4-4.7-1.9-2.6.9-8.5-4-2.8-2.9-3.3,5.2-3.8,2.8V416l-3,.6.6,4.9L93,426.9l-5.2-2.4-3.1.6-2.5-.8-3.4.6-2.1-1.3-2.9-3.8-4.9-2.3-1-2-.1-3.8-.8-2.3.3-3L66,401.6l2.4-5.5L65,397l-11.8-4.6-7.3-5.5-2.3-3.8-5.1-1.4-2.9-7.1,1.5-3.6-.4-9.1-2.4-2.8-3.5-.3-.9-4.4-4-2.6-3.5-.3-6.2-3.6-.3-3.8,11.9.1.7-2.6L27,338.1l1.8-9.2-1.2-4.5,2.4-4.5.1-2-7-5.4-5-.9-2.5,2.1-2.1-4.3.8-4.6,2.5-1.8-1.9-5.5,1.5-4.9,4.5-.5,1.5-2.9-.5-3.4,1.4-3,4.3-2.2,4.8,1.1,2.7-1.5,5.7-.9,1.3-3.5,6.2,3,6-2.1,1.1,3.5v3.7l2.3,1.1,3.5-1.4,4.4,1.6,4.4-2.7,7.4-9.1,3.5.2,7,3,6.9.3,2.8,1.2,8.8-7.2,13.5-4.3,4.7-.1,5.7-1.9,2.2-1.1,3.8.7,1.7-1,1.7-9-.2-3,2.7-3.6,3.9-.8-.7-3.4,6.5-2.1-.1-2-.9-1.9,1.4-4.3-3-13.8,1.1-1.8.6-7,2.8-4.1-3.1-2.7-3.7-.6-1-1.5,3.4-2.4,15.3-.7,10.5-1.3,3.5,5,5.6-.3,2.9,2.3,2.6-.9,1.2-4.9-4.1-3.8,4.7-9.6.9-2.9,10-16.2,2.2-5.9,3.1.8,9,6.5,11,1.3,2.7,4.3,1-.1,5-2.6,5.4-.6,3.7-4.4-1.7-5.5,1.2-9.5,4.7-10.2,6.6,1,7.6-3.1,2.3-4.5.5-5.2,6.7-1.4,4.2,2.3,2.6-1.3Z"/><path id="f902c394-f4f0-4a91-a9a3-b06c9deebf5e" data-name="xizang" class="b6eb5619-9497-4728-ade6-c6584771b129" d="M92.8,426.8l4.9-5.4-.7-4.9,3.1-.7.2-2.6,3.8-3.2,2.6-3.9.3-1.1,3.4,3,8.3,4.1,3-.9,4.6,1.7,2.7,4.4,5.4-.8,4.3-6.5,5.1-2.2H146l2.9,2.1,5.3-.2,2.7,1.6,4,.6,6.7,5.9,6.3.8,2.3,1.5,15.6-3.7,2.4-1,7.3,2.1,1.9-.4,11.5-7,6.8-1.2,10.7.2,5.1-3,7.8.4,7.1,1.6,6.8,4.1,2.5.6,6.5,3.9,6.1-.7,4,.4-.4,3.7-4.9,2.1-.1,1.8,4.3,1,1.1,1.5-.1,5.1-2.7,4.2-2.5,8.1,1.6,2.3-1.1,3.5-5,.4-1.1,1.5.6,3,1.4,1.2-1.2,3.6.7,2,3.3,5.3,2.1,2.4.7,4.5,3.5,4.9,3.1,9,9,.8,2.8,1.7,3.8.7,3.2,1.7,4.3.4,4.6,2.5,4.6,5,5,1.6,2.7-1.4,2.5.2,1.3,2.3,5.1.1,5,2.7,12.5.2,1.7.9,7.8.6,3.5,1.8,2,3.5,5.2,3.8,2.8,1.1,1.5,6.9,4,.9,4.1,2.9,2.6.4,2.4-1.8,2.1.2,4.6,2.7,1.4-.7,8.4-11.5.4-2.7,2-1.9-.1-3-.9-1.3.4-2.1,3.7-.9,2.9,3.4,3.1,2.2,5.3,1.4,4.2,3.1.5,3.8,2.7,3.2.4,6.1,2.9,3.9,4.5,4.4-.3,1.5-2.4,1.8-1.7.1.4,2.3,2.5,3,1.1,4.5,1.6,1.5.4,13,1.1,2.8-.2,4.1L436,573l1,11.7-1.9-.1-1.7,1.4-.3,3.2-2,2.4-2.9.9.5,3.5-1.3,2.7.7,1.4-.1,5.5-3.6,1.7-2.8-1.9-4.2,3.5-1.9-2.9-3-.6-2.4-3.5-2.6-.5-5.7,5.7-3.7-3.7-2.6,1.1-2.1-1-2.1.1-3.3-2.4-4,1.5-1.7-1.2,1.6-3.3,4.5-3.6-.1-1.5-2.6-4.9-2.7.8-2.4,2.1-.8-4,3.6-1.6,1.1-2.2-3.3-.9-2.2-3.5-9.5,3.8-1.9,3.5-1.6.8-3.1-.6-4.2-2.3-4.4-1.4-2.1-3.3-2.3,1.7-3,1.2-5.2,3.8-2.4.4.1,2-7.2,3.8-7-.3-2.3.9-1.5,4.4-4.4,2.9-4.8,3.2-.2,3.2-4.7,1.9-6.9.1-1.7,1-2.6-.2-8.7-4.1-3.4-2.8-7.5-.1-4.6-1.4-4.7-5.9-6.7-2-10.4,4.3-6.9,6-4,5.5-3,1.6-2.1-3.5,3.3-6.9-.6-3.4-2.9-2.7-2.8.4-7.9,2.4-9.3,1.5-3.8-2.3-3.9,1.5-10.8-8.8-4.9,2.8-2.6-.3-2.4-3.9-4.2,2.6-1.5-4.3-6.1-5-5.9-.8-1.5-5,1.5-1.9-1.1-1.5-4.6,1.1-5.2-4.2-7.2-3.3.8-6.6-1.1-4.4-2.5-1.1-3.4,4.5-2,.4-4.2-4.9-.4-5.7-6.1-6.5-2.3-1.1-3.7-5.8-4.4-1.8-3.5-4.1-6.5-3.4-.9-3.9-10.9,7.1L97,522.6l-3.1-2.2-2.1-3.6-7.3-6.1,1.8-1.8L85,507.4l-2-.5-3.2-4.4-3.3-1.3-3.7-.2-3.5-4.6-2.2-7.9-5.7,1.6-.7-3.7,1.8-3.4-.9-3.1,2-5.6-3.8-6.9.8-2.1-.2-2.4,1.1-1.7,4.8.1.3,3.6,2.6,2.4,5.3-1.6,4-.8,2.7-3.8-1.6-4.6,1.2-3.5L75,448.3l-1.4-3.5L73,443l1.2-5.1v-3l-.4-3.9.4-1.4,1.3-.4,2.7-.4,1.5-1.3.4-1.8-.6-1.6,3.3-.7,2.2.8,3.1-.5,2.7,1.2Z"/><path id="ed82a01b-07e7-4c11-b692-12cc4c55a946" data-name="sichuan" class="b6eb5619-9497-4728-ade6-c6584771b129" d="M408.2,505.6l2.3-.6,1-2.6-1.3-2.1.4-2,4.8-3.5,4.9-1.2,2.9,1,4.6-.8,2.5.8,4.3-.9,6.6,3.8,2,.5,2,1.4,4.5-3.3h4l1.4,3.3,10.1,10.7,3.5.6,2-.8,2.3.6,2-3.3-.2-3.6,1.8-3.4,5.5-3.4,2.4.4,1.8,2,1.2,2.5h1.1l4-3.4h2.8l1.9,2.1,2.1-.4.5-3.1,1.9-3.4-.5-2.5-2.1-1.5-1.6-4.8-.2-2.6,3-2.3,4.7-1.3,4.3-2.4,1.9-.3,2.9,1.6-.5,5.1,1.6,3.5,4,1.2,1.5,4.4,6.8,5.9,2.2.3,3.6-3h1.3l2.2,5.4,1.1,1.9-.2,4,3.7,3.9,4.3.4,1.5,1,1.1-.7,2.9,1.7,5.4-2.7.2-4,1.4-1.3,9.3.4,1.6,1.1.5,3.2,2.1,1.1,8.7-1.9,2.3-1,4.3.3,1.4,4.1,1.3,1.2,2.2.1,1.7-1.3L596,514l2.9.5,5.2,4h.9l4.9-2.3,3.9-.3,3.1,1.9-.1,1.2.4,2.1-2.4,2.8.1,1.1,3.9,2.6.1.8-.5,2.1-2.7,1.8-2.2,3-5.2,12.1-1.9,1.5-5.2-.4-1.7,1-1.1,6.7-6.2,9.4-2.4.7-4.4-.9-4.4-5.3-1.2.6-1.8,1.5-2.3.2-4.6-2.8-2.6-1-2.4.7-2.9,5,2.9,3.8-.2,1.2-.7.8-9,7.4,5,6.3,3.4.5,2.3,6.4,7.1,1.2,2.3,2.5.9,3.7-.4,2.7-6.2-4.8-1.3.5-.7,2.7-2.7.3-1.6,2.2.4,3.8,7.1,3,2.9.6,1.3,3.4,1.9,3.2-1.1,1.6h-4l-7.1,2.7-2.9-2.2-4.7.7-1.3-1.2.4-3.8-1.1-.2-2.1-2.1-2.1.4-2.1,4.1-4.7.9-3.3-.6-2.5-2.3,1.2-1.7-.3-3.7-2.4-1.7-.7-4,1.5-1.8-1.8-1.8-3.7,1.4-3.6-.8-1.7,2.8,1.5,3.7-1.2,1.7-5,.9-1.4,3.9,1.2,2-.9,4.2-4.8,4.6-2.7,3.3-1.8.2-1.2,1.4-.9,10.2,2.9,4.2-.4,6.4-.3,1-6.4,3.7-1.6-3-2,.3-6.8,4.1-.9,1.5-6.1-.2-1.7-2.7-2.4-.7-.4-5.5-2.7-1.9.7-3.7-1.2-.8-1.3-2.7-2.3-1.8-.5-5.7-4.7-4.6L472,623l-6-6.9-3.1-.1-6.2-2.2-.6-3.7-1.4-3.1,1.8-2.6v-2.8l-2-1.1-2.7.6-5.9,5.7-1.8-.3-2.6,2.5-3.4-4.7-2.4-31.1.7-1.7v-3.7l-.9-2.3-.3-13.3-1.8-1.3-1-4.5-2.4-2.8-.4-2.3,1.5-.2,2.6-1.9.1-1.5-4.3-4.1-2.9-4.6-.4-5.8-2.7-3.1-.5-3.8-4.3-3.3-5.3-1.3-3.3-2.3Z"/><path id="f4c5bd63-3d1a-443b-beb4-149470be0c33" data-name="chongqing" class="b6eb5619-9497-4728-ade6-c6584771b129" d="M577,601l1.7-1,1.1-2.4-.3-2.5,2.2,1.9-.2,2.5,2.8,1.5,1.8-1.8,1.4-4,1.5-2.7,2.9-1.3,2.8,1.3,2.2-.2,2.6-2-1.6-4.1.7-2.5,1.1-.2,2.7,1.4,2,.3,1.1,2.5,1.6.6,2.3-1.9,5.1.1,2,5.3-.6,2.3,1.5,1.2,3.6.9.2,3.8.8,2.4,1.3-1.2-.5-1.9.8-.3,1.3,1.3-.3,2.3,1.6,1.5,4,.2,1.9-2.7v-2.2l1.8-1.2-.9-13.6-2.8-1.3-4.3-5.2-.4-4.6-2.6-.8-3.3-3.6-2.2,1.8,1.1-10.3-3-4.2,4.1-3,2.9.1,4.2-1.8,4.3.3,4.8-1.6,5.8-6.3,3.8,1.5,1.5-3.1-.7-4,1-2.3-.8-3.5L644,530l-2.2-1.4-.1-4.5L636,524l-7,1.3-1.6-.4-.8-3.2-5-.5-4.8-3.1-.7.5.6,2.4-2.5,3,.2.9,3.8,2.9.4.9-.8,1.8-2.9,2-2.2,3.3-4.9,11.4-2.2,1.7-5.2-.3-1.6.8-1,7-6.5,9.2-2.3.9-4.3-1.1-4-5.1-1.3.4-2.1,1.7h-1.8l-5-3.2-2.8-.7-2.2.9-2.4,4v1.4l2.3,2.5.4,1.6-1.2,1.4-8.4,6.7v.9l4.5,6,3.2.3,1.2,1.9,1.3,4.8,7.2,1.1,2.3,2.4.9,3.8-.3,2.7Z"/><path id="bbb1d46e-968e-4899-ace2-f56b312c3170" data-name="guizhu" class="b6eb5619-9497-4728-ade6-c6584771b129" d="M576.9,600.6l.5.1,1.7-.7,1.2-2.3-.6-3.1,2.4,2.1-.4,2.8,2.5,1.4,2.3-1.8,1-4.2,1.6-2.4,2.8-1.2,3,1.5,2.1-.4,2.3-1.9-1.3-4.3.8-2.5,1.2.1,2.2,1.3,2.1.3,1.2,2.6,1.5.5,2.3-1.9,5,.2,1.7,3.3.3,2-.3,2.2,1.5,1.1,3.5.8v3.9l1,2.3,1.3-1.1-.5-2h.7l1.5,1.2-.4,2.4,1.8,1.4,3.8.1,1.7-2.5.3-2.5,1.9-.7,1,2.7,1.6,1.8-.5,2.3.3,4.6.7,3.7,2,2.4-.4,2.3-1.5,1.2-1.1,1.9-3,1.3-5.8,5.7,1.2,2,1.4.3,3.2-2.3,2.3-.2,1.8-.8,1.9.2,1.6,1.4.7,4.8-.5,1.2-3,2.5,2.1,2.8-.5,1.9-1.4,1.9v2.1l3.2,4.4.5,2-4,6-3.1-1-2.5,1.2v1.3l1.4,1.3-.6,1.8-4.5.2-1.6.9h0l-1.3,3.6-4.7-2.8-2.8,1.3-1.7,2.1-1.2,3.9-3,.4-1.8,1.5-4.4-3.5-2.8.6-2.5-1.9-.9-2.9-1.2-.7-4.3,3.9-1.5,3-1.7,1.6-3.9.4-7.3,4.7-2.6.7-.1,3.8-4.2,2.8-1.3-1.2-2.3-.1-1.4-1.1-4.8-.5-1.4-2.8-5.6-.7-1.3.8-1.8,3.2-2.2.7-2.4,2.1-2.9-.1-2.1-.9.7-2.5,2.3-3.3.5-5.5-2.3-3-3.4-1.5-2.6-5.8,3.7-7.7.3-4.9,2.9-3.4-5.1-6.3-1.7,1.1H535l-1.9,2.5-1.5.2-3.8-.7V642l-1.3-2.3,1.2-2.7-.5-1.8-3-1.3,5.5-6.8,2-.3,3.5,1.9,3-2.7,3.7,1.7h7.3l2.3-1,2.9-.6,3.3-8.1,4.6-.7,3.2,1.9,7.2-2.4,3.7-.1,1.2-1.4-2.3-3.9-.9-3-3.2-.6-6.6-2.9-.6-3.7,1.6-2.1,2.6-.6.8-2.4,1.6-.5Z"/><path id="b148f37c-84a3-4217-9ee4-4f05b3297471" data-name="yunnan" class="b6eb5619-9497-4728-ade6-c6584771b129" d="M417.6,608.8l3.8-3.4,2.7,1.6,3.7-1.6.3-5.1-.8-1.8,1.1-2.8-.5-3.6,3.1-.4,1.9-2.5.2-3,1.6-1.6h2l1.5,19.3,3.4,5,2.6-2.6,2,.3,5.5-5.7,2.9-.6,1.8.9.2,3.1-1.5,2.3,1.3,3.3.4,3.5,6.3,2.4h3.1l5.9,6.8.6,3.4,4.6,4.7.5,5.6,2.5,2,1.2,2.6,1.1.4-.6,3.9,2.5,1.8.6,5.3,2.5,1.1,1.4,2.3,5.8.4,1.5-1.7,6.7-4,1.6-.2,1.7,3,6.5-3.9.6-2.1v-5l-2.7-4.1.9-10.2,1.3-1.7,1.8-.2,7.6-7.7.7-4.2-1.2-2.2,1.7-3.7,4.8-.9,1.2-1.7-1.4-4,1.6-2.6,3.6.7,3.8-1.3,1.8,1.7-1.5,1.5.5,4,2.4,1.6.2,3.8-1.2,1.7,3.1,2.5,3.4.4,4.2-1,2-3.8,2.2-.6,2.1,2.2.9.3-.3,3.8,1.3,1.2-3.2,8.2-3.2.3-2.2,1.4-2.8-.4-4.3.3-1.8-1.3-2.3-.3-2.7,2.8-3.4-2.3H531l-6,6.3v1l2.8,1,.7,1.8-1.5,3.1,1.5,2.2.2,3.1,3.7.9,1.7-.7,1.2-2,4-.2,1.8-1.2,5.3,6.3-2.8,3.4-.3,4.9-4,7.8,2.7,5.7,3.4,1.5,2,3-.5,5.9-2.2,2.8-1.4,5.4,2.5,4.6,1.3.8.9-2,3.2-.1,1.3.7,1.8-1,2.8,2.3.7,4.7,5.3,2,2.7-2.3,2.8,1.9,2.1.7,2.6-.8,1.3-.6,3.9,4.3-1.4,8.5-2,.5-2.6-.6-7.4,7.5-4.3-1.8-8.8,6.2.2,4.6-10.7,3.8-2.6-2.6-2.8,2.5-2.2,5.2-6.5-6.5-2.4,4.5-3.3-4.4-7.7,7.7-8.8-6.8-2.4.7-1.1,2.8-5,4.4-9.7-1.1-2.9,5.7,4,7.7.9,8.3-1.1,7.4-2.7-1.3-6.8.1-3.8-11.7-6.1,2.2-4.7,4-4.2-1.6-3.5,2.1-2.3-5.7-2.7-2.2.3-6.3-16.1-3.1,1.6-5.4,2.5-3.5-.4-5.2,3.5-3.8-.7-3.7-8.3-.1-3.4-2.9-1.1-8.2-2.6-7.3,2.6-4.5-5,.2-6.2-1.4-6.2,1.2-4.5,4.2-3,.3v-2.6l2.3-4.7-.7-4-1.5-1.6L403,687l1.2-3.2,3.6-1.2-.8-2.4,2.5-6.4,5.4-1.4,1.9-4.8,3.2-.4,3.4-4.8,2.4-.7L427,660l-1.8-3.7,2.7-4,1.5-15.5-1.4-6,.9-3.5-.2-4.2-4.2-2.7-2.5,2.9-4.1-9.2Z"/><path id="bb167900-8024-4ec2-9006-6b67ffe47dc1" data-name="beijing" class="b6eb5619-9497-4728-ade6-c6584771b129" d="M734,317.5l-1.2-4.1,2.1.7V313l1.7-2.7,2.6-.7,5.8,5.5,2.2.6,1.4-1.3,1,.5,2.8-.5.8,1.7-2,1.9-.5,2.5.9,2.2,2.6,2.5-2.7,3.7-2.4.1-1.4.9-1.8.1-2.3,1.7,1.5,1.8,2.4,1.9.3,2.1-1.8,2.1-4.2.4-1.4,1.4-.4,1.7-1.5.4-3.3-1.7-7.5,1.7-4.1-2.6-1.8-3.2,1.1-5.1,1.8-2.8,3-1.1.5-3-1.8-2.3.7-2.2,2.8-2.2,1-1Z"/><path id="ef2da96e-17b7-48f2-9409-c42f20ea4035" data-name="tianjin" class="b6eb5619-9497-4728-ade6-c6584771b129" d="M751.2,337.9l.4-3.7-.2-5.4,2.3-3.5,2.2-.4,2.8,1.2-.2,3-1.1,1.1.5,3.5,2.4,3.2,2-.2,1.2,1.1.6,2.7,2.5.4,1.3,1.5-.3,4.4-1,.2-4.1,2.9-1.8,4.4.4,5.6-2.6,1-5.7-2.3-2.3.9-2-.4-2.6-3.1-.3-1.9,1.5-3.3L747,348l-1.2-2.1.7-3.9-.5-2.5,1.7-1.8Z"/><path id="aca75448-6d72-4e4b-8c9c-1a13f31d1fd3" data-name="hebei" class="b6eb5619-9497-4728-ade6-c6584771b129" d="M796.1,323.3l-2.2-1.2-.7-3.1-2.8-1.9-1.3-4.1-5.3-.6-1.5-2.2-3,.2-3.4-3.8,2.1-2.1-.3-2.8,2.5-2.7v-1.7l-1-.5-2.6.1-1.6.9-8.7-.1-1.2-1.1-.3-3-4.2-4.8.9-2.1-.5-2.9-4.1-3.3-1.9-4.2-3.8-4.3-2.5.4-3.3,2.9-2.8.2-4.5,3.3-.1,1.6,1.3,2.8-.1,4.3-1.2,1.3-4.3.1-2.3-.8-4.3,4.2-1.4.4-2.5-1-6.2,4.7-3,4.1-4.9.5-1.2-1.5-.3-7.1-2.1-3.3-4.3.1-2.4,4.9-2.1,2.6-.2,4.8-3.2,3.3-.6,3.6,1.7,2-1.8,2.9.5,1.3,1.8,1.3,6.1,9,.6,3.3,2.4,1,.2,1.1-2.6,1.8-2.8.9-1.2,2.6,1,2,1.9,1.1,3,.3,1,1.2.6,3.2,2,1.9.8,2.2-1.1,3.2-.5,4.7-2.5,1.6-5.5,1.2-2.2,2.6.2,1.9,1.3,1.2-.2,1.2-4.1,4.4.4,6.1,1.9,1.5,3.2,1.4,1.2,3.3,5.7,7.5-3.4,7.2-.5,3.1-1.1,1.1.2,2.5.6,2-2.6,3.7-2.2.4v3.1l3,4.2,2.3,1.1,5.2.4,1.3,1,5.9.3,1.9,1.5,1.9.2,1.8-1.4,1.3-.2,2.7,1.7,2.5-2.3,2.3-.1,3.7,1.3.2-2.4-3.6-5.2.2-4,2.7-3.6,2.2-1.5,2.8-6.3,1.6-5.9,3-1.1,1-3.8,1.4-1.7,1.8,1,1.4-.9,2.8-3.9,1.6-2.4,2.2-.7,3.9-.5,2.8.2,1.8-1v-2.6l2.7-2.6,1.7-2.4-2.8-2.3-2.8-5.4-.1-.9-2.5.8-6.2-2.4-1.9,1.1-2.3-.6-2.5-2.7-.2-2.6,1.2-2.9.1-2.9-1.2-1.8.7-4.3-.7-2.3-3.9.4-1.8,1.5-.1,1.7h-2.3l-2.6-1.3-7.4,1.5-4-2.5-1.5-3.3.6-4.4,1.9-3.3,3.1-1.2.8-3.2-2.2-2.3.9-2.2,2.8-2.1,1-.8,3-.6-1-3.8,1.7.3.2-1.2,1.9-2.7,2.5-.4,5.8,5.3,1.9.6,1.8-1.2.9.6,2.5-.5,1,1.7-2.2,1.8-.5,2.2,1,2.4,2.9,2.6H756l2.5,1,.1,3.4-1.5.7.6,4,2.2,2.7,2.5.3.9.9.7,2.7,2.8.5.8,1v4.7l1.3-.3,3.5,1.7,2.4-1.2,1.5-1.8h3.6l1.5-1,1.1.4.7-4.8,1.3-4.6,2.8-4.6,2.5-1.5V327Z"/><path id="f4fb6cb4-e91c-4db3-a732-cc0f82c4d294" data-name="hebei" class="b6eb5619-9497-4728-ade6-c6584771b129" d="M743.5,331.4l2.6-1.6,1.7-.2,1.1-.5,2.1-.3.7,5.6-.6,3.6-3.4-.4-.4-2.4Z"/><path id="b008d077-337d-4619-ab3e-61bef5ecd899" data-name="henan" class="b6eb5619-9497-4728-ade6-c6584771b129" d="M644.5,461.6l5.6.5,2.9-1.2,2.5-2.8,2.7-.7,1.8-1.5,4.5-.5,5-5.4,2-1.2h2.6l1.1-2.9,2.3-1.1,5.6.4,2-2.1,3.5.6,3.6-2.1,5-3.6,3.7-3.1.3-8.4.6-2.4v-6.5h5.6l1.7,1.2,5.6.4,1.9,1.3,2.2.2,1.8-1.4,1.6.3,2.4,1.3,2.6-2.3,1.9-.2,1.5.9,2.6.4v1l-1.3,1.4-.7,3.1,1.1.8,5.6-4.2,2.8-1.1,3-2.2.3,2-3.7,2.9-8.1,8.5-.9,2.4-2.2,1.5-1.8,2-.5,2.2-1.8,2v1.7l1.1.7,4.7.4,3.1,2.5,2.6,1.2.3,2.7,2.3,1.8,3-1.5,4,.1,1.4-.9,2.4.5.5,2.1,4.1,3.4,2.6.3.9.9.6,3.5,1.8,2.1-.8,1.5-1.3.9-1.2,1.7-3.5,2.3H752l-3-4.1-2.2-1.9-2.9-.2-1.8,1.2-.7,2.9,1.5,6.6-4,1.9-1.1,3.3,1,2.3-1.3,3.3-2.1,1.5-3.7-.4-.5,1.9.6,1.3,4.4,1.1,1.3,1.3.2,3.2,1,1.7,3.2.5,3,2.6,1.9.3,1.9-2.4,2.2-1.2-.1,2.3,2.4,7.1-1,7-3.9,1-2.9,3.2-.5,5.6-3-.8-.6-2.1-1.9-.8-1.1,1-.5,1.6-4.6.5-4.7-2.1-.5-2.7-1.7-.2-1.5.4-2.7-1.8h-.9l-1.7,1.6h-1.7l-1.5-1.8-2.6-2.1-.8-2.7-.6-6.2-.9-.7-1.6.6-1.9,1.9-2.2.8-4.4-2.3-2.8.2-6.1,2.4-2.4-1-4.3,1.3-10.2-2.5-1.9-2-3.7-.4-2.3-3.2-3.5-2.7-2.8-4.7-2.5-2.5.1-5.5-3.5-3-1.4-3-2.8-1.8.3-2.5-.8-3.7-2.7-1.1-.5-2.6-1.9-1.7-.5-2.7Z"/><path id="fdccb441-3601-4691-8f84-e96e42ac5bb4" data-name="shandong" class="b6eb5619-9497-4728-ade6-c6584771b129" d="M766.9,368.7l-1.6,2.5-2.6,1.9-.4,3.4-1.8.9-2.5-.2-6.4,1.1-1.4,2.9-4.1,4.5-1.9-1.1-1.3,1.9-1,3.6-3.1,1.1-2.2,7.7-2.5,4.8-2.5,1.8-2.2,3-.2,3.5,1.6,3.1,2,2.4.2,3.1-1.6,2-.3,2.8.8.8,5.7-4.2,3-1.3,2.8-2.1.4,1.8-4.6,3.8-7.5,7.9-.5,2.3-4.1,3.1-.5,2.5-1.9,2.1-.1,1.9,5.7,1.2,3.7,2.4,2.1.9.4,2.8L739,453l3.1-1.3,3.7-.2,1.6-.7,3.4.3,2.9-1.6.7-6,5.3-2.2,2.5.9,3.8,3.9,1.3,3.4,1.4,1,2.7-1.8,2.8,1.5,1.4-.2,2.8-2.4.9-2.5,2.9-.8,3.5,2.1.1,2.3,1.3,1,2.6-1.6,1.7-5.6,3.8-.9,1.4-6.1L798,433l3.3-1.2,2.9-.2.5-4.1,1.5-2.3,2.1-5.1,3.3-1,.7-2.4,1.5-4.1,2.4-2.1-2.8-3,1.8-1.8,2.7,1.3,3.1.5,2.6-2.6-.3-6,1.6-2.9,2.3-.5,4.5-3.8,3.3-2.3,1.6-1.2,2.7-2,2.6-3.4,2.8.5L846,382l2.8,2.5,3-2.3-1.2-3.2,1-2.6-.2-4.3-3-1.2-2.8,1.5-3.3-1.5-5,2-4.1,2-2.4-1.1-1.7-2-2.2.5-4.4-2.8-3.2-1.5-3.9,1.5-4.2,3.2-.8,4-4.5,4-.8,4.3-3.4,3.7-7.2-.8-5.5-2.1-.8-9.7-3.2-3.4-4.8-1.3-3-2.2-2.6,1-3.4,2.1-3.2-2.6Z"/><path id="f4f1c294-e4c7-4594-b37c-fd87b7682d95" data-name="shanxi" class="b6eb5619-9497-4728-ade6-c6584771b129" d="M698.3,321.4l-.8.5-1.7,3.8-4.2,1.9-4.2,3.1-2.2.1-2.6-1.7-1.9.6-2.2,2.1-1,2-2.3,1.3-4.8-1.9-2.3.9-3.8,8.2-1.8,5.1-2.6,1.9-3.8-.6-1.2,1.9-.7,2.3-2.5,2.1-.9-.2-.1,5.1-.4,2.4-2.4,2.5v5.5l-1,2.5-.6,4.3-3.5,3.1-1.8,3.6.1,3.7,2.8,2.5,2.6,3.8-.1,2.8-1.2,2.2.2,3.1-3.5,6.7-.2,7.6,1.7,2.3.3,10,4,10.4-.3,3.2-2.7,4.5-1.9,5.7.3,7.3,1.1,2.2,5.8.2,3.2-1.2,2-2.6,4.8-2,4.4-.8,5.3-5.7,1.6-.7,2.4-.1,1-2.6,2.9-1,4.9.1,2.6-2.2,2.8.9,1.7-.4,2.8-2.3,5.8-4,2.5-2.4.3-7.2.6-2.9-.1-7-2.6-2.4-2.4-3.3.4-2.4,1-.8,1.1-.1,2.5-3.6-.7-3.1.3-1.9.7-1.2.6-3.5,2-3.1,1-3-1-2.3-4.4-5.3-1.3-3.7-3.8-1.4-1.1-1.5-.7-5.8,1.4-1.8,1.4-1.3,1.4-1.7.1-1.4-1.2-1-.3-1.5,2.3-2.6,4.2-.9,3.3-1.8.5-1.3.4-3.9,1.2-3-1-2.4-2.1-2-.5-3-1-1.1-3.4-.3-2-1.4-.5-1.6,1.1-2.5,3.3-1,2.3-2v-1l-2.6-1.2-.6-3.4Z"/><path id="bebc2bbb-edd8-467c-a134-28b6b39f1440" data-name="shaanxi" class="b6eb5619-9497-4728-ade6-c6584771b129" d="M602,393.7l2.8,3.7,4.2-.3,2-1.2,1.6-4.8,2-4.3,2.9-2,3.1-5.4,1.9-1.6,1.4-2.7,4-1.2,1.5-1.2v-1.9l-1.4-1.7.8-5.6,3.8-3.6,1.6-3.8,1,.6.4,1,4.1-.7,2.7,1.5,1.1-.9,1-1.8,3.7-3.9L651,355l.3,4.3-.4,2.9-2.6,2.5-.1,5.4-.8,2.4-.5,4.4-3.7,3.5-1.8,3.4.2,3.4,2.9,3.2,2.4,3.7v2.6l-1.2,2.4.2,3-3.5,6.7-.3,7.5,1.6,2.3.5,10,3.8,10.3-.3,3-2.5,4.6-1.9,5.8.3,7.3,1.2,2.3.9,3.6,1.8,1.8.4,2.1,2.7,1.4.9,4.3-.2,1.9,2.6,1.8,1.9,3.2,3.2,2.8v4.8l-3.9,4.5-3.7-2.6-3,2.1h-4.2l-1.4-.8-7-.8-2.8,1-.8,1.1.6,1.8,3.8.5.6,3.3,4.3.9,2.7,1.8-.3,2.8-3.3.7-3.2,1.5-2.8.4-1.6,5.4,1,2.6,2.7,2.7-.8,2.4v3l-6.5,1.3-1.8-.5-.7-2.9-4.8-.8-8.1-5.1-3.8.3-5.7,2.5-5.6-4.3L596,514l-2.1-2.4-2.1,1.2-2.5-.3-1-1.5-.8-3.2-4.6-.5-2,1-8.7,2.1-2.2-1.2-.7-3.4-1.5-.9-4.8-.3,3.4-3.8,1.1-3.8-1-2.6-3.1-1.7,1.3-2.2,3.6-1.7,7.4-.1.4-.9-.3-1.2V482l-1-1.6,2.8-6.2,1.5-1.5L579,471l-2.2-2.1-3.9-1.1-.2-1.5,2.9-2.7.5-3-1-2.1.7-2.2,4.8-1.2,3.7.5,3.4,3.1,8.8-1.5,1.9-1.1-1.3-2.3.2-3.6,1.3-.2,2.7,1.2,3.1-1.6,5.5.3,2.1-1.3.5-4.8-2-2.7-.5-4.6,3.3-2.8-.3-7.6-2.6-2.3-1.8-.4-3.9-2.7-2.7.8-3.8-3.8-6.6-1.9-.8-.7-2.2-.5-1.7-4.2.5-2.4-1.5-2.7L587,400l2.6-2.9,5.2-1.4,4-.1,2.3-1.7Z"/><path id="b5f1c43b-f7f4-48ab-90ed-78829ceee653" data-name="anhui" class="b6eb5619-9497-4728-ade6-c6584771b129" d="M735.5,486.8l2.1-1.6.9-3.2-.7-2.6,1-3.3,3.9-1.5.1-1.2-1.4-5.6.6-3,2-1.1,2.7.2,2.1,2,3.3,3.9,1.5-.1,3.4-2.1,1.2-2.1,1.7-1,.6-1.2-2-2.3-.2-3.2-.9-1-2.9-.2-4.1-3-.3-2.5,1.9-.5,2-1.3,2,.1,2,2,7.1,2.3.7,3,3.6,2.6,2.1-.3,3,.8h3.4l2.9,2.9.7,2,1.4.7,1.8-.9,3-.9.9.6v3.7l-1.8,6.4.2,1.7,4.1.9,2,2.9-.2,1.4,1.5,2.8,2.1,1.6,5.2-1.1.8-1.4.4-2,1.4-2,1-.1,4.6,2.3,1.8,3.9-2.2,3.8-1.5-.3-2.2-1.6-4.8.9-.4,1.6,1.7,2,.9,2-.8,2.3-2.3,1.8-1.3,2.3-.3,2,1.3,2,2.1,1.7,3.3,1.1,1,1.1,2.9.8v4.2l-1.4,1.5,1.4,2.3,3.6-.3,2.9-1.3,2.4-.3,2.3,1.3,4.2.5v4.8l-1.3,4.6-1.4,1.8-1.9,1.5.2,1,1.7,1.3.5,1.8-1.5,1.9-2.1.7-3.8-.3-1.2.9.3,3.7.5.8.3,4.8L813,547l-.5,3.3-5.1,6.1-1.8.5-2,1.9-2.3-2.5-2-.6-2.5,1-5.6-.5-2.5-1.7-1.8-2.5-2.1-.3-.4-.7-1.7-.3-.9,1-.4,3-1.4,1.1-2,3.5-2.8.2-1.2-1.7.5-1.9,2-2.2.2-1.9-1.7-2.4-1.7-.9-2.2,1.3-.7,1.8-1.9,1.9-5.4,2.4-.6-2.9-1.3-4.7-1.4-2.7-2.5-1.7.2-3.2-2.3-2.2-1.3-2.2,1.5-3,1.9-2.7.4-1.6-3.5-2.5-1.5.1-2.2-.6H748l-3.3-3.4.7-5.8,2.8-3,4-1.1,1-7.1-2.3-6.7.1-2.7-2.1.9-2.2,2.5-1.9-.1-3.2-2.9-3.1-.4-.9-1.5-.2-3.5-1.5-1.4-4.1-.8-.7-1.2.6-1.9Z"/><path id="e653d4f2-7430-4fc4-9c98-bea6d133261a" data-name="jiangsu" class="b6eb5619-9497-4728-ade6-c6584771b129" d="M804.1,431.9H801l-1.4,1.1-1.9.3-1.1,2.3-1.3,6.1-3.9,1.2-1.6,5.3-2.7,1.7-1.5-1.1-.1-2.4-3-1.9-3.2.7-.8,2.5-3.3,2.7-1.5-.2-2-1.4-3.3,1.7-1.8-2-1-2.6-4-4.2-2.6-.3-4.5,1.9-.9,3.8.1,2.2,2.3.4,2.1,2,6.6,1.8,1,3.1,3.5,2.9,2.3-.2,7,1.1,2.2,2.2.6,2.5,1.1.4,4.8-1.6,1.4.8-.2,3.5-2,6.1.4,2.1,4.1.8,1.9,3-.1,1.7,1.5,2.5,2,1.6,5.4-1.3.9-3.4,2-2.2,5.2,2.5,1.7,3.9-2,3.9-1.4-.2-2.4-1.7-4.9,1-.4,1.4,1.8,1.8,1,2.4-1,2.4-2.2,1.4-1.6,3.6.6,1.9,3.2,3,3.2.8,1,1.1,2.6.9v4.3l-1.3,1.5,1.3,1.9h3.7l2.7-1.5,2.9-.1,2.3,1.5,4.2.3,1.9-.8,2.6-.3,6.4,4.2,2.7-1.2,1.6.1.9,1.5,2,.4,2.3-1.8.8-2.2,2.8-2.1.8-2.1,1.8-1.3.8-5,1.6-2.9-.8-.5-2-2.3-3.9-.7-5-.8-.5-2.8-3.5-.7-4,2-1.3.4-.4-.5,1.7-2.6,3.4-1.6,5,.5,1.8,2.5,2.7,1h4.8l3.6.5,3.5,2,4.5.7,2.1-.5.6-1.3-2.7-3.6-5.2-4.7-4.9-1.3-1.8-5.1-4.4-1.8-5-1.3-2-1.4.8-3.4-1.2-3.2-6.1-8.8-3.8-6.3-4.7-9-2.5-2.5-12.4-3.8-2.3-2.5-5.7-1-.5-4.8Z"/><path id="a1329302-2442-456b-9523-29af294930ae" data-name="shanghai" class="b6eb5619-9497-4728-ade6-c6584771b129" d="M853.9,503.3l-1.6,2.3-1.1,5.6-1.6,1.4-1,2.1,2.2,1.3.9,2.3,4,.8,1.4,2.2,4.7-3.4,3.2-4,.7-3.8-3.4-2.9-5.3-2Z"/><path id="a9a736e1-7be3-4d91-b262-57c7176584d3" data-name="zhejiang" class="b6eb5619-9497-4728-ade6-c6584771b129" d="M857,521.4l-1.7-2.3-3.9-.9-.6-2.3-2.1-1.1-2.8,1.7-.9,2.2-2.4,2.2-1.7-.6-.8-1.6h-2l-2.3,1.3-6.7-4.4-4.4,1.2-.1,5.5-1.6,4.8-2.9,2.8,2.4,3.7-1.5,2-2.9.8-3.8-.3-.4.9.8,9.4-1.8,1.1-.2,3.5-5.4,5.9-1.9.4-3.3,4.4-.3,4.2,6.2,4.9,2.9,3.5,2,7.7,4.6-.3L819,583l.3,3.3-.3,1.1,2.2,2.5,3,6.9.4,1.8,5.1.6,4.2-2.5,1.4-3.1.8-.8,1.5.6,2.9,5.1,2.1,1.3,5.7-2.3,1.5-.9,3,.6,2.2,1.4,1.6-2.1-.3-3.7.3-2.3,1.8-5.1,1.5-3.6,1.7-1.2.5-6.1,3.5-1.4.7,4.8,2.4-3.3,3.2-2.2-1.9-4.1-1.9-3.2,2.8-2.6V559l2.8-3.8-1-3.1,1.8-1.5-1-3.7-.4-5.1-1.4,3.5-3.5.3,3.9-5.3,4.3-3.3,3.4-1.7-.4-2.2-5.3-2.2-2.1.7-1.5,3.5-2.8,1.1-3.4-2.3-4.5-3.5-3.6.5-4.8,4.3-2.6,1-4.6-.8-4.2-1-.9-1.6,3.5-1.9,5.3-.5,2.8-1,.2-3Z"/><path id="b50f8307-53ea-4db2-9e4c-191d92654a5e" data-name="jiangxi" class="b6eb5619-9497-4728-ade6-c6584771b129" d="M732.8,657.2l1.8,1.4.3,1.4,4.3.2,3.1-1.8,2.8-.7,1.8.9,1.4,2.6-.8,2.5-3.8,2.7-1,3.9-2.8,3.7,4.5,3,14.2-5.5,5.5-2.8,5,3.8,2.5-.1.7-1.7-1.4-4,2.8-2.1-1.8-3.8-.1-2.3,1.7-1.6,1.1-9.3,1.4-2,.1-3.6,2.6-1.5,1.8-3.9-1.2-4.1,3.2-3.3v-1.3l-2-4,.5-5.5,2.4-1.8,4.7-2,3-4.9-1.8-6,2.1-5,.5-3.2,3.8-2.2,2,.2,1.2,1.2,2.1.3.6-1.8,3.1-2.3,7.1-3.4-.2-3,1.8-2.4-2-7.7-3.3-3.7-6-4.7.2-3.8,1.7-3-2.3-2.7-2.2-.5-2.2.9-5.8-.4-2.7-1.9-1.5-2.2-2.1-.2-.5-1.1L783,551l-.9,1.1-.5,3-1.3,1.3-1.9,3.3-2.5.3-1.4-1.7.4-2.1,2-2,.4-2.3-1.8-2.2-1.6-.7-2.3,1-.5,2.1-2.1,1.8-9.6,4.7-3.2-1.5-3.6-.2-2,.5-.5,3.4-1.7.9-2.6-.3-1.4,1,.7,1.8-2.5.6-2.2,2-.6,1.7-6,2.1-3.9.4-1.2,1.8-4.8,3.2-.3,1.5,4.9,6.3.1,4.3,2.5,3.9-.6,1.9-2.2,2.3-1.9,4.7-3.7,1.3-.4,3.3-1.5,2.2-.3,3.8,1.2,4.3,1.2.6,1.8-1.4,1.3,1.1.5,1.3-1.5,2.9.6,1.4,2.9,2.5-1.6,3.3.5,2,2.3,2,2.6.8.4,3-1.1,1.8-.4,3.7,1.5.7,2.1-1.4.9.7L733,644l.1,3.1-2.1,4.7,1.5,2.2Z"/><path id="fb6d2049-e129-48be-8199-d1d95cee4222" data-name="hubei" class="b6eb5619-9497-4728-ade6-c6584771b129" d="M658.6,490.4l2.4,2.2,3.6,5.8,3.1,1.8,2.2,3.3,3.6.4,1.9,1.7,4,.9,5.9,2,4.7-1.4,2.3.6,6.4-2.2,3.1-.1,4.1,2.4,1.9-.9,1.7-2,1.7-.7,1,.6.4,7,1.3,2.3,4.1,3.7,1.5-.3,2.1-1.5,3.4,1.9,2.4-.4,1,.8.1,2,4.7,2.4,4.5-.8,1.5-2.6,2,.8.5,2.1,2.9.9,3.7,3.8,2.3-.4,4.1,1,3,2.1-.5,2.2-3.3,4.8,1.9,3.2,1.8,1.3-.2,3.3,2.5,1.6,2.5,6.5.8,4-4.5,2.1-3-1.5-3.7-.4-2.1.5-.3,3.4-2.1,1.2-2.3-.2-1.2,1,.5,1.8-2.2.3-2.3,2.1-.7,1.8-5.9,1.9-4,.2-1.6,2.2-4.2,2.7-.8,1.4-2.7-.5-1.5.7-.6-2.3-1.8-1.7.1-3.2,1.2-1.9-.6-2.5-2.1-2.4-.2-2.1-4,2.9-4.8,6.2-2.9-.3-.6-2.2,1.1-2.8-1.3.3-1.2-1.2-2.2.8-3.1,2.9H693l-2.5,1.7-9.2-6.3-8.8-.4-3.2-2-5.7-.8-3,.3-1.8,1.1-3.6.7-.4,1.4,3.3,2.7.5,2.1-4,2.5h-3.4l-1.8.6-1.9-2.7-3.4.4-3.5,2.3-1.9.9-3.3,3-.5,2.8-1.8,2.2-.5,3.9-2.8-.9-4.2-5.4-.3-4.5-2.9-.8-3.1-3.5-2.3,1.6.8-3.3.2-7.6-2.8-3.6,3.9-3,3.4.1,3.5-1.8,3.1.3,3.9-.4,3.6-2.1,4.7-5.2,3.8,1.4,1.4-3.1-.6-3.5,1-2.9-.9-3.1-1.4-2.5-3.2-2.1V524l-6-.5.2-3.3.7-2-2.8-2.9-1-2.3,1.9-5.4,3.4-.6,2.4-1.4,3.3-.6.5-2.9-2.8-1.8-4.6-.8-.3-3.4-3.8-.4-.7-1.5,1-1.3,2.6-.7,6.9.8,1.6.8,3.9-.1,2.5-2.1,3.8,2.6Z"/><path id="b1358c20-4afc-4002-9d95-476a1aed6be1" data-name="hunan" class="b6eb5619-9497-4728-ade6-c6584771b129" d="M633,585l.5-3.8,2.8-5.8,2.6-2.6,5.6-3.4,3.4-.3,1.9,2.4,2.6-.6,2.8.3,3.7-2.4-.5-2.3-3.4-2.8.4-1.3,3.8-.4,1.7-1.6,8.4.6,3.7,2.1,8.6.4,9.3,6.5,2.5-1.8,2.7-.5,4.3-3.3,3.2,1.1-.8,2.4.5,2.2,2.8.3,4.9-5.8,3.8-3.5.6,2.4,2,2.8.5,1.9-1.3,2.3v2.9l1.6,1.8.7,2.5,1.2-.7,3.1.5,4.6,6.1.4,4.6,2.5,3.6-.7,1.9-2.2,2.6-1.9,4.5-2.8.8-1.2.9-.2,3.1-1.5,1.9-.3,3.9,1.3,4.5,1.1.4,1.8-1.3,1.8,1.5.2,1.2-1.8,2.6.7,1.3,3.1,2.5-1.5,3.4.4,1.8,2.4,2.1,2.6,1,.3,2.9-1.1,1.8-.3,3.7,1.4.7,2.4-1.6.8.7-.4,1-2.2,2.4.1,3.1-2.1,5,1.7,2.3v2.8l-3,2.7-6.8.3-4.1-2.4-6,4.8v1.2L714,666l-.3,4.8-3.2.4-4.9-4.2-7.7.4-.7,4.3.9,2.1-1.4,2.4-2.9,1-6.3-.2-2.4,3.1-.8.3-.9-1.3.3-2.5L683,672l-1.8-1.9-2,.2-2.3,2.2-1.9,1.9-1.3-1.5.1-2.3,2.4-3.4,1-2.2,1.9-1.7.6-6.4,1.3-1.5.2-2.3-1.3-.6-2.7.5-1.1-1.8.6-6.3-2.7-.7-1.5-1-2.2.3-1.9,1.8-4.3-.8-1.8,2.9-2.8,2.8-1.1,1.9-2.6.7-1.1-.7.1-3.2-1.8-1.8-1.7.3-1.6,3-.7,2.4-2,2-1.5-.3-1.3-1.3h-2.8l-.5-2.3-3.1-4-.3-2.1,2-2.6.1-1.2-1.9-2.9,3.1-2.9.3-1.5-.5-4.2-1.6-1.3-2.3-.1-1.8.8-2.2-.1-3,2.3-1.4-.3-1.3-1.7,5.8-6.1,3.1-1.2,1-1.8,1.6-1.1.3-2.3-1.8-2.4-.8-3.8-.2-5.5.4-1.4-1.4-1.7-1-3.5Z"/><path id="af21d54d-3acc-4607-b628-3888da371250" data-name="fujian" class="b6eb5619-9497-4728-ade6-c6584771b129" d="M802,689.3l-.5-1-1.4-.9-.4-1.4-2.9-5.1-.5-4.9-3.2-4.3-1.5-1.1-.9-2.7-1.9-.2-2.6,1.4-2.8-3-2.9-1.6-2.9.8-1.6-.9-2.6.2-2-3.8-.1-2.3,1.8-1.5.8-9.6,1.5-1.7v-3.8l2.6-1.3,2.1-3.9-1.3-3.9,1.4-2.1,1.8-1.4v-1.4l-2-3.4.5-5.9,2.5-2,4.4-1.7,2.2-3,.9-2.5-1.6-4.8.8-4,1.2-1.6.5-3.3,2.4-1.4,1.5-1.1,1.9.4,1.1,1.4,2,.2,1-2,3.1-2.1,6.9-3.5-.2-3,1.5-2.3,4.8-.3,1.3.9.7,3.5-.5,1,2.3,2.6,1.8,4.8,1.6,3.1.2,1,3.6.3,1.2.4,4-2.6,2.4-4.1,1.5.8,3.3,5,2,1.2,2.5-1.4,4.8-1.9,2.8.5,2,1.5-1,1.4h-3.2l2.2,1.5-1.9,1.9-.3,3.5-1.5,1.2-3.4,2.3-.7,3.6-.7-.9-3.6-.5-.9,3.1,3.9,3.3.9,1.6-1.7,2.2-1.3,4.2,1.5,2.5-.5,2.3,1.3,2.3-2.3,3.5,2.3,3.3-.4,1.4-2-.5-2.9-1.8-2,2.2-.5,3,2.1,2.6-2,.7-4.2,3.7,1.5,2.8-.9,1.5-5.5.3.9,2.4,1.9,1.2-.9,2.1L828,664h-4.2l-3.1,1.6-1.8,2.5-4.4.8,2.6,2.3,1.2,2.3-1.9,1.9-2,3.2h-2.9v4.2l-3.9-1,1,4.6L806,686l-.8,3.6Z"/><path id="bf3f0137-402c-47e8-90bd-f8c064cfeb26" data-name="guangdong" class="b6eb5619-9497-4728-ade6-c6584771b129" d="M654,753.8l1-3.3,2.4-1,1.3-4,1.4-1.2,6.9-.8-1-1.6.2-4.2,4.2-.7,3.5-2.7-1.5-3.7,1.2-2.4,4.2-1.7,7-6,1.5-1.9.2-3.5-.9-2.2-.1-4.1,1.7-5.4,2.2-2,.3-3.1,2.5-.8,2.2-3.1-.8-5.1,2.5-2.5.1-2.5-.9-1.8-.1-1.5-1.3-2-.1-2,2.8-1,1.7-2.5-1.1-2.3.9-4.1,7.6-.6,5,4.5,3.2-.5.2-4.9-1.6-2.3.6-1.5,5.9-4.4,4,2.6,6.9-.4,3-2.6,1.6,1.5.6,1.5,3.9.1,3.5-2,2.7-.4,2,1.2,1.1,2.5-.9,2.6-3.7,2.5-1,3.7-2.8,3.6,4.3,3,14.2-5.1,4.3-2.8h1.5l5.1,3.5,2-.3.9-1.9-1.3-3.2.7-1.6,3.8-1.4,2.5,1,3.3-.7,2.8,1.6,2.4,2.9,3.5-1.5.9.4.9,2.5,2.2,1.9,2.8,3.9.3,5,3,5,.1,1.1,1.6,1,.3.9-2,2.8,1.9,1.7-3.4,1.6-5.8.5-.1.5,1.9.7,1.3,2.2-3.9,1.9-.5,5.3-4.7.7-3,2.3-2.3.5-3.7,2.7-4.1-2.3-1.2,1.5-.7,4.1h-2.3l-.2-2.2-1.4-.9-3.2.3-3.6,3.4-1.5,2.5-2.9.2-.5-3.9-4,2-.3,3.6-2.7-1.3-3.8,1.5-3.9,1.3-2.7.2-2.2-2.1-1-2.5-2.3.2-1.3-1.3-1-.7-.9,2.3.8,1.2.2,1.1.3,2.6,1.4,3.7.2,1.7-.1.2-2.3,1.4-2.4-2.3-.4.3,1.2,3.1-3.3,4.2-3.5-4.5-1.1,2.6.4,5.7h-3.9l-4.3,3-3.9-1-.8,2.3h-7.2l-2.3,1.3-3.2,1.1v2.3l-3.1,2.2h-3.3l-1.8,1.5-5.6.3-1.8,2.3-4,.3-3.5,4.8-2.5.3-3.6,2.6-2.4,2.4,1.1,3.5,2.8,1,.8,3.5,3.5,3.5-.2,1.3-3.5,3.4-7.3.3-.7-2.2,1.4-1.1-4.5-2.4-.5-5.8-2.7-.7,1-7.8,2.8-4.3,1.4-2.6Z"/><path id="f2148962-30ee-4c35-8cb3-29de39d930d8" data-name="guangxi" class="b6eb5619-9497-4728-ade6-c6584771b129" d="M565.2,719.7l7.2-7.2,2.9.5,1.8-.7.6-6.8.5-1.5-3.6-4.5-4.2,1.7-4.6-2.3-3.3,2-4.7-2.2-.7-3.9-2.7-3.2-2.2,1.3L551,692l-3.3.3-.7,2-1.4-1-2.6-4.6.8-2.4,4.3,1.2,5.3-3.3,2.7-3.6,5.8.7,1.8,2.8,3.9.4,2.1,1.3,2.1-.1,1.2,1.2,4.3-2.8-.1-3.8,2.8-.4,7.2-4.9,3.9-.4,1.9-1.9,1.5-3,3.8-3.6,1.5.8.9,2.7,2.8,2.1,2.6-.6,4.2,3.3,2.2-1.5,2.5-.4,1.4-3.8,1.6-2.1,2.6-1.3,4.8,3,2.4-4.5,4.8-.1,1-1.8L632,660l.7-1.2,2.3-1.1,2.6,1,4.2-5.8,2.4-.1,1.8,1.4h1.5l1.8-1.8.7-2.4,1.9-3.1,1.5-.2,1.5,1.5.1,3.5,3.3.2,5.2-6.4,1-1.4,4.2.8,2.7-2.1,5.7,1.8-.4,6.4,1.1,1.3,3.6.2-.1,2.3-1.3,2-.5,6.2-2.2,1.4-.5,2.3-2.8,3.2-.3,2.4,1.6,1.7,3.9-4.2h2.1l1.9,1.9.7,7.3.8.8,1.6-1,1.2-2.1,6,.2.5,2.3,1.3,2.3.1,1.7.9,1.5-.3,2.1-2.4,2.2v2.3l.7,3.1-2.3,3.1-2.6.8-.4,3.1-2.2,2-1.6,5.5.1,4.3,1.1,2.2-.3,3.6-5.6,5.5-4.5,2.8-2.6.9-1,2.5,1.4,3.5-3.8,2.9-4,.6-.2,4.1.8,1.5-1.8,1-4.6.2-1.9,1.5-1.2,3.8-2.4.9-.9,3.2h-.5l-3.1-3.8-1.7.3,1,4.3-5.8,1.1-1.5,1.1-1-3.8-2.9-.8-2.9-1.6-1.5,1.5-2.3-3-.8-3.2-3.2.9v4.8l-2.7.7-1,2.2h-1.8l-.6-.5-3.5,1.4-4.1-2L608,755l-8-4-2.4-2.7-6.5-1.5-1.3-7-1.5-1.5.4-3.1,3.4-3.2-.3-3.2-5.4-2.4L582,728l-4-2.8-4.3,1.7-7.3-4.5Z"/><path id="e03eaa31-3f94-447b-9295-cb07ec2cadba" data-name="hainan" class="b6eb5619-9497-4728-ade6-c6584771b129" d="M655.7,788.5l5.2.9,3.2-.7.9-1.6,6.6-.9,4.3-1.3,4.8-2.1,1.4.5v3.6l1.4,3.9.5,3.4-2.5,2.1-2.7,3.8-2.7,5.7-.9,6.3-.7,4.7-2.3,1.1h-2.1l-3.6,4.5-.2,2-3.2.2-3.6.9v3.6l-4.5.7-2.1-2-6.1.4-4.3-2-5.4-2.3-.7-4.3-1.3-3-.9-4.8.9-2.3-.7-2.5,1.3-2.7,7.7-5.4,2.7-.7,1.4-2.3-2.5-.2v-2.2l2.1-1.4,3.9.2,1.4-.7v-1.8l1.8-.9Z"/><path id="a683006c-2dcc-4592-a740-29cc1f552482" data-name="xiamen" class="b6eb5619-9497-4728-ade6-c6584771b129" d="M741.6,722.6l3.9-1.3,2.9,2.5-1.9,1.2.5,1.6-2.4-.4-1.7-.5-2.2.2Z"/><path id="e331b3f7-f30f-4ec8-b479-c59573214070" data-name="liaoning" class="b6eb5619-9497-4728-ade6-c6584771b129" d="M795.45,322.65l-2-1.1-.8-3.3-2.8-2.1-1-3.8-5.3-.6-1.8-2.2-3.1.3-3.3-3.6,1.9-2.2-.2-2.9,2.5-2.6-.1-1.8,2.4-2.7.4-2.9-2.3-3-.7-3.1V278l-1.9-2-.2-1.8,3.4-3.3,3,2.7h3l.1,1.8,3.7,4.1,1.4,3.4,1,.5.8-2.8,3.9-5.2,1.3-2.3,3.9-3.4,3.5-.6,4.2-6.1,1.9-1,3,.7,2.9-1.8-.3-3.3,1.8-1,2.5-.4,2.3.5,1.8-1.4-1.5-2,.4-1.4h3.5l2.6,1.7,5.6-2.7.6-3.3,1.5-2,4.2-2.6,1-8.5.7-.4,4,2.1,4.6,1,3,3.3-.2,3.1,1.1.9,2.3-1.2.9-3.6,2.1-1.5,1.2,1,.7,4.3,2.2,1.6.7,2.3,2.2,1.3,5.4,7.5,2.6.3.2,2-1.5,5,1.8,4.3,1.8.3,3.2,3.9,4.2,3.9.1,3.9-.9,2.5,1.4,2.8-3.2,4.5-5.7,3.4-1.9,3.6-1.8,1.2-5.1,7.1-.5,4.9-2.8,2.4-1.4.8-5.5.5-2.1,2.1-4.7.8-1.1,2.5-2.5.2-5.4,4.4-7.6,6.9-1.8,4.1-2.2,2.5-4,2.8-3.5,4.1-3.8,3.1-1.3-1.5.9-3.5,2.2-.2,1-2.1,2.8-1.5.5-2.6,1.7-4.7-3.9,1.1-1.9-1.7-3.2-1.8,2-1.1.3-5.1,1.7-1.9,4.1-3.1,1.3-3.9,3.6-8.2-2.9-2.1-5.1-5.1-3.2-.8-3.6,2-5.1.3-3.4,2.1-.5,3.3-1.5,1.5-3.8,5.4-.3,5-2.9,2Z"/></svg>